<svg width="243" height="31" viewBox="0 0 243 31" fill="none" xmlns="http://www.w3.org/2000/svg">
<path d="M0.522727 30V0.90909H18.0795V4.03409H4.04545V13.8636H17.1705V16.9886H4.04545V26.875H18.3068V30H0.522727ZM36.4744 13.892V17.017H23.7472V13.892H36.4744ZM66.2365 10H62.7138C62.5054 8.98674 62.1409 8.09659 61.62 7.32955C61.1087 6.5625 60.4837 5.91856 59.745 5.39773C59.0159 4.86742 58.2062 4.4697 57.3161 4.20455C56.4259 3.93939 55.4979 3.80682 54.532 3.80682C52.7706 3.80682 51.175 4.25189 49.745 5.14205C48.3246 6.0322 47.1929 7.34375 46.3501 9.0767C45.5168 10.8097 45.1001 12.9356 45.1001 15.4545C45.1001 17.9735 45.5168 20.0994 46.3501 21.8324C47.1929 23.5653 48.3246 24.8769 49.745 25.767C51.175 26.6572 52.7706 27.1023 54.532 27.1023C55.4979 27.1023 56.4259 26.9697 57.3161 26.7045C58.2062 26.4394 59.0159 26.0464 59.745 25.5256C60.4837 24.9953 61.1087 24.3466 61.62 23.5795C62.1409 22.803 62.5054 21.9129 62.7138 20.9091H66.2365C65.9714 22.3958 65.4884 23.7263 64.7876 24.9006C64.0869 26.0748 63.2157 27.0739 62.174 27.8977C61.1323 28.7121 59.9628 29.3324 58.6655 29.7585C57.3776 30.1847 55.9998 30.3977 54.532 30.3977C52.0509 30.3977 49.8445 29.7917 47.9126 28.5795C45.9808 27.3674 44.4609 25.6439 43.353 23.4091C42.245 21.1742 41.6911 18.5227 41.6911 15.4545C41.6911 12.3864 42.245 9.73485 43.353 7.5C44.4609 5.26515 45.9808 3.54167 47.9126 2.32955C49.8445 1.11742 52.0509 0.511363 54.532 0.511363C55.9998 0.511363 57.3776 0.724431 58.6655 1.15057C59.9628 1.5767 61.1323 2.2017 62.174 3.02557C63.2157 3.83996 64.0869 4.83428 64.7876 6.00852C65.4884 7.17329 65.9714 8.50379 66.2365 10ZM80.3381 30.4545C78.3684 30.4545 76.6402 29.9858 75.1534 29.0483C73.6761 28.1108 72.5208 26.7992 71.6875 25.1136C70.8636 23.428 70.4517 21.4583 70.4517 19.2045C70.4517 16.9318 70.8636 14.9479 71.6875 13.2528C72.5208 11.5578 73.6761 10.2415 75.1534 9.30398C76.6402 8.36648 78.3684 7.89773 80.3381 7.89773C82.3078 7.89773 84.0313 8.36648 85.5085 9.30398C86.9953 10.2415 88.1506 11.5578 88.9744 13.2528C89.8078 14.9479 90.2244 16.9318 90.2244 19.2045C90.2244 21.4583 89.8078 23.428 88.9744 25.1136C88.1506 26.7992 86.9953 28.1108 85.5085 29.0483C84.0313 29.9858 82.3078 30.4545 80.3381 30.4545ZM80.3381 27.4432C81.8343 27.4432 83.0653 27.0597 84.0312 26.2926C84.9972 25.5256 85.7121 24.517 86.1761 23.267C86.6402 22.017 86.8722 20.6629 86.8722 19.2045C86.8722 17.7462 86.6402 16.3873 86.1761 15.1278C85.7121 13.8684 84.9972 12.8504 84.0312 12.0739C83.0653 11.2973 81.8343 10.9091 80.3381 10.9091C78.8419 10.9091 77.6108 11.2973 76.6449 12.0739C75.679 12.8504 74.964 13.8684 74.5 15.1278C74.036 16.3873 73.804 17.7462 73.804 19.2045C73.804 20.6629 74.036 22.017 74.5 23.267C74.964 24.517 75.679 25.5256 76.6449 26.2926C77.6108 27.0597 78.8419 27.4432 80.3381 27.4432ZM95.3416 30V8.18182H98.5803V11.5909H98.8643C99.3189 10.4261 100.053 9.52178 101.066 8.87784C102.079 8.22443 103.296 7.89773 104.717 7.89773C106.156 7.89773 107.354 8.22443 108.31 8.87784C109.276 9.52178 110.029 10.4261 110.569 11.5909H110.796C111.355 10.464 112.193 9.56913 113.31 8.90625C114.428 8.2339 115.768 7.89773 117.33 7.89773C119.281 7.89773 120.877 8.50852 122.117 9.73011C123.358 10.9422 123.978 12.8314 123.978 15.3977V30H120.626V15.3977C120.626 13.7879 120.185 12.6373 119.305 11.946C118.424 11.2547 117.387 10.9091 116.194 10.9091C114.66 10.9091 113.471 11.3731 112.629 12.3011C111.786 13.2197 111.364 14.3845 111.364 15.7955V30H107.955V15.0568C107.955 13.8163 107.553 12.8172 106.748 12.0597C105.943 11.2926 104.906 10.9091 103.637 10.9091C102.766 10.9091 101.951 11.1411 101.194 11.6051C100.446 12.0691 99.8397 12.7131 99.3757 13.5369C98.9212 14.3513 98.6939 15.2936 98.6939 16.3636V30H95.3416ZM130.107 30V8.18182H133.346V11.5909H133.63C134.085 10.4261 134.818 9.52178 135.832 8.87784C136.845 8.22443 138.062 7.89773 139.482 7.89773C140.922 7.89773 142.12 8.22443 143.076 8.87784C144.042 9.52178 144.795 10.4261 145.335 11.5909H145.562C146.121 10.464 146.959 9.56913 148.076 8.90625C149.193 8.2339 150.533 7.89773 152.096 7.89773C154.047 7.89773 155.642 8.50852 156.883 9.73011C158.123 10.9422 158.744 12.8314 158.744 15.3977V30H155.391V15.3977C155.391 13.7879 154.951 12.6373 154.07 11.946C153.19 11.2547 152.153 10.9091 150.96 10.9091C149.425 10.9091 148.237 11.3731 147.394 12.3011C146.551 13.2197 146.13 14.3845 146.13 15.7955V30H142.721V15.0568C142.721 13.8163 142.318 12.8172 141.513 12.0597C140.709 11.2926 139.672 10.9091 138.403 10.9091C137.531 10.9091 136.717 11.1411 135.96 11.6051C135.211 12.0691 134.605 12.7131 134.141 13.5369C133.687 14.3513 133.46 15.2936 133.46 16.3636V30H130.107ZM174.021 30.4545C171.918 30.4545 170.105 29.9905 168.58 29.0625C167.065 28.125 165.896 26.8182 165.072 25.142C164.257 23.4564 163.85 21.4962 163.85 19.2614C163.85 17.0265 164.257 15.0568 165.072 13.3523C165.896 11.6383 167.041 10.303 168.509 9.34659C169.987 8.38068 171.71 7.89773 173.68 7.89773C174.816 7.89773 175.938 8.08712 177.046 8.46591C178.154 8.8447 179.163 9.46023 180.072 10.3125C180.981 11.1553 181.705 12.2727 182.245 13.6648C182.785 15.0568 183.055 16.7708 183.055 18.8068V20.2273H166.237V17.3295H179.646C179.646 16.0985 179.399 15 178.907 14.0341C178.424 13.0682 177.733 12.3059 176.833 11.7472C175.943 11.1884 174.892 10.9091 173.68 10.9091C172.344 10.9091 171.189 11.2405 170.214 11.9034C169.248 12.5568 168.504 13.4091 167.984 14.4602C167.463 15.5114 167.202 16.6383 167.202 17.8409V19.7727C167.202 21.4205 167.487 22.8172 168.055 23.9631C168.632 25.0994 169.433 25.9659 170.455 26.5625C171.478 27.1496 172.666 27.4432 174.021 27.4432C174.901 27.4432 175.697 27.3201 176.407 27.0739C177.127 26.8182 177.747 26.4394 178.268 25.9375C178.789 25.4261 179.191 24.7917 179.475 24.0341L182.714 24.9432C182.373 26.0417 181.8 27.0076 180.995 27.8409C180.19 28.6648 179.196 29.3087 178.012 29.7727C176.828 30.2273 175.498 30.4545 174.021 30.4545ZM188.154 30V8.18182H191.393V11.4773H191.62C192.018 10.3977 192.737 9.52178 193.779 8.84943C194.821 8.17708 195.995 7.84091 197.302 7.84091C197.548 7.84091 197.856 7.84564 198.225 7.85511C198.594 7.86458 198.874 7.87879 199.063 7.89773V11.3068C198.95 11.2784 198.689 11.2358 198.282 11.179C197.884 11.1127 197.463 11.0795 197.018 11.0795C195.957 11.0795 195.01 11.3021 194.177 11.7472C193.353 12.1828 192.7 12.7888 192.217 13.5653C191.743 14.3324 191.506 15.2083 191.506 16.1932V30H188.154ZM211.237 30.4545C209.191 30.4545 207.43 29.9716 205.952 29.0057C204.475 28.0398 203.339 26.7093 202.543 25.0142C201.748 23.3191 201.35 21.3826 201.35 19.2045C201.35 16.9886 201.757 15.0331 202.572 13.3381C203.396 11.6335 204.541 10.303 206.009 9.34659C207.487 8.38068 209.21 7.89773 211.18 7.89773C212.714 7.89773 214.096 8.18182 215.327 8.75C216.558 9.31818 217.567 10.1136 218.353 11.1364C219.139 12.1591 219.627 13.3523 219.816 14.7159H216.464C216.208 13.7216 215.64 12.8409 214.759 12.0739C213.888 11.2973 212.714 10.9091 211.237 10.9091C209.93 10.9091 208.784 11.25 207.799 11.9318C206.824 12.6042 206.061 13.5559 205.512 14.7869C204.972 16.0085 204.702 17.4432 204.702 19.0909C204.702 20.7765 204.968 22.2443 205.498 23.4943C206.038 24.7443 206.795 25.715 207.771 26.4062C208.755 27.0975 209.911 27.4432 211.237 27.4432C212.108 27.4432 212.898 27.2917 213.609 26.9886C214.319 26.6856 214.92 26.25 215.413 25.6818C215.905 25.1136 216.255 24.4318 216.464 23.6364H219.816C219.627 24.9242 219.158 26.0843 218.41 27.1165C217.671 28.1392 216.691 28.9536 215.469 29.5597C214.257 30.1562 212.846 30.4545 211.237 30.4545ZM233.864 30.4545C231.762 30.4545 229.949 29.9905 228.424 29.0625C226.909 28.125 225.739 26.8182 224.915 25.142C224.101 23.4564 223.694 21.4962 223.694 19.2614C223.694 17.0265 224.101 15.0568 224.915 13.3523C225.739 11.6383 226.885 10.303 228.353 9.34659C229.83 8.38068 231.554 7.89773 233.523 7.89773C234.66 7.89773 235.782 8.08712 236.89 8.46591C237.998 8.8447 239.006 9.46023 239.915 10.3125C240.825 11.1553 241.549 12.2727 242.089 13.6648C242.629 15.0568 242.898 16.7708 242.898 18.8068V20.2273H226.08V17.3295H239.489C239.489 16.0985 239.243 15 238.751 14.0341C238.268 13.0682 237.576 12.3059 236.677 11.7472C235.787 11.1884 234.736 10.9091 233.523 10.9091C232.188 10.9091 231.033 11.2405 230.058 11.9034C229.092 12.5568 228.348 13.4091 227.827 14.4602C227.307 15.5114 227.046 16.6383 227.046 17.8409V19.7727C227.046 21.4205 227.33 22.8172 227.898 23.9631C228.476 25.0994 229.276 25.9659 230.299 26.5625C231.322 27.1496 232.51 27.4432 233.864 27.4432C234.745 27.4432 235.54 27.3201 236.251 27.0739C236.97 26.8182 237.591 26.4394 238.112 25.9375C238.632 25.4261 239.035 24.7917 239.319 24.0341L242.558 24.9432C242.217 26.0417 241.644 27.0076 240.839 27.8409C240.034 28.6648 239.04 29.3087 237.856 29.7727C236.672 30.2273 235.342 30.4545 233.864 30.4545Z" fill="#AB7A5F"/>
</svg>
